<svg xmlns="http://www.w3.org/2000/svg" width="400" height="300" viewBox="0 0 400 300">
  <rect width="400" height="300" fill="#f8fafc"/>
  <rect x="10" y="10" width="380" height="280" fill="#ffffff" stroke="#e2e8f0" stroke-width="2" rx="8"/>
  
  <!-- Conference hall -->
  <rect x="30" y="30" width="340" height="220" fill="#f9fafb" stroke="#d1d5db" stroke-width="1" rx="4"/>
  
  <!-- Stage/Podium -->
  <rect x="50" y="50" width="300" height="60" fill="#1f2937" stroke="#374151" stroke-width="2" rx="4"/>
  <rect x="70" y="70" width="260" height="20" fill="#3b82f6" rx="2"/>
  <text x="200" y="85" text-anchor="middle" fill="white" font-family="Arial, sans-serif" font-size="12" font-weight="bold">Меѓународна конференција</text>
  
  <!-- Speaker podium -->
  <rect x="180" y="120" width="40" height="30" fill="#6b7280" stroke="#4b5563" stroke-width="1" rx="2"/>
  <circle cx="200" cy="110" r="8" fill="#dbeafe" stroke="#3b82f6" stroke-width="1"/>
  
  <!-- Audience rows -->
  <!-- Row 1 -->
  <circle cx="80" cy="180" r="6" fill="#dcfce7" stroke="#16a34a" stroke-width="1"/>
  <circle cx="100" cy="180" r="6" fill="#fef3c7" stroke="#d97706" stroke-width="1"/>
  <circle cx="120" cy="180" r="6" fill="#fce7f3" stroke="#ec4899" stroke-width="1"/>
  <circle cx="140" cy="180" r="6" fill="#e0e7ff" stroke="#4f46e5" stroke-width="1"/>
  <circle cx="160" cy="180" r="6" fill="#ecfdf5" stroke="#059669" stroke-width="1"/>
  <circle cx="240" cy="180" r="6" fill="#fee2e2" stroke="#dc2626" stroke-width="1"/>
  <circle cx="260" cy="180" r="6" fill="#f3e8ff" stroke="#9333ea" stroke-width="1"/>
  <circle cx="280" cy="180" r="6" fill="#fef7ed" stroke="#ea580c" stroke-width="1"/>
  <circle cx="300" cy="180" r="6" fill="#f0fdfa" stroke="#0d9488" stroke-width="1"/>
  <circle cx="320" cy="180" r="6" fill="#fffbeb" stroke="#ca8a04" stroke-width="1"/>
  
  <!-- Row 2 -->
  <circle cx="90" cy="200" r="6" fill="#dbeafe" stroke="#3b82f6" stroke-width="1"/>
  <circle cx="110" cy="200" r="6" fill="#dcfce7" stroke="#16a34a" stroke-width="1"/>
  <circle cx="130" cy="200" r="6" fill="#fef3c7" stroke="#d97706" stroke-width="1"/>
  <circle cx="150" cy="200" r="6" fill="#fce7f3" stroke="#ec4899" stroke-width="1"/>
  <circle cx="170" cy="200" r="6" fill="#e0e7ff" stroke="#4f46e5" stroke-width="1"/>
  <circle cx="230" cy="200" r="6" fill="#ecfdf5" stroke="#059669" stroke-width="1"/>
  <circle cx="250" cy="200" r="6" fill="#fee2e2" stroke="#dc2626" stroke-width="1"/>
  <circle cx="270" cy="200" r="6" fill="#f3e8ff" stroke="#9333ea" stroke-width="1"/>
  <circle cx="290" cy="200" r="6" fill="#fef7ed" stroke="#ea580c" stroke-width="1"/>
  <circle cx="310" cy="200" r="6" fill="#f0fdfa" stroke="#0d9488" stroke-width="1"/>
  
  <!-- Row 3 -->
  <circle cx="85" cy="220" r="6" fill="#fffbeb" stroke="#ca8a04" stroke-width="1"/>
  <circle cx="105" cy="220" r="6" fill="#dbeafe" stroke="#3b82f6" stroke-width="1"/>
  <circle cx="125" cy="220" r="6" fill="#dcfce7" stroke="#16a34a" stroke-width="1"/>
  <circle cx="145" cy="220" r="6" fill="#fef3c7" stroke="#d97706" stroke-width="1"/>
  <circle cx="165" cy="220" r="6" fill="#fce7f3" stroke="#ec4899" stroke-width="1"/>
  <circle cx="235" cy="220" r="6" fill="#e0e7ff" stroke="#4f46e5" stroke-width="1"/>
  <circle cx="255" cy="220" r="6" fill="#ecfdf5" stroke="#059669" stroke-width="1"/>
  <circle cx="275" cy="220" r="6" fill="#fee2e2" stroke="#dc2626" stroke-width="1"/>
  <circle cx="295" cy="220" r="6" fill="#f3e8ff" stroke="#9333ea" stroke-width="1"/>
  <circle cx="315" cy="220" r="6" fill="#fef7ed" stroke="#ea580c" stroke-width="1"/>
  
  <!-- Title -->
  <text x="200" y="25" text-anchor="middle" fill="#374151" font-family="Arial, sans-serif" font-size="14" font-weight="bold">Научна конференција</text>
  
  <!-- Footer -->
  <text x="200" y="270" text-anchor="middle" fill="#64748b" font-family="Arial, sans-serif" font-size="10">Презентација на резултати од истражувањето</text>
</svg>
